# xmcd
#
# Track frame offsets: 
#        182
#        22735
#        37762
#        55472
#        73052
#        93540
#        111637
#        125512
#        150572
#        173927
#        188465
#        201790
#        212127
#        228790
#
# Disc length: 3258 seconds
#
# Revision: 0
# Processed by: cddbd v1.5.1PL0 Copyright (c) Steve Scherf et al.
# Submitted via: ExactAudioCopy v0.95a5
#
DISCID=ba0cb80e
DTITLE=Jacques Herb - Manuela
DYEAR=1992
DGENRE=levenslied
TTITLE0=Manuela
TTITLE1=de Toreador
TTITLE2='n Man mag niet huilen
TTITLE3=Werkeloos
TTITLE4=Is Jacques Herb mijn echte naam
TTITLE5=Rozen geef ik jou Maria
TTITLE6=Elizabeth
TTITLE7=Gloria
TTITLE8=Voor ik hang
TTITLE9=Kleine Tamara
TTITLE10=Bruidsklokken
TTITLE11=Is 't nu voorbij
TTITLE12=Moeder Maria
TTITLE13=Zigeunerlied
EXTD=
EXTT0=
EXTT1=
EXTT2=
EXTT3=
EXTT4=
EXTT5=
EXTT6=
EXTT7=
EXTT8=
EXTT9=
EXTT10=
EXTT11=
EXTT12=
EXTT13=
PLAYORDER=
